<?xml version="1.0" encoding="utf-8"?>
<!-- Generator: Adobe Illustrator 17.0.0, SVG Export Plug-In . SVG Version: 6.00 Build 0)  -->
<!DOCTYPE svg PUBLIC "-//W3C//DTD SVG 1.1//EN" "http://www.w3.org/Graphics/SVG/1.1/DTD/svg11.dtd">
<svg version="1.1" id="Layer_1" xmlns="http://www.w3.org/2000/svg" xmlns:xlink="http://www.w3.org/1999/xlink" x="0px" y="0px"
	 width="60px" height="44px" viewBox="0 0 60 44" enable-background="new 0 0 60 44" xml:space="preserve">
<path fill="#0F7155" d="M30,0L30,0l30,10.852V44H0V10.852L30,0z"/>
<g>
	<g>
		<path fill="#FFFFFF" d="M30.932,15.61c-0.29-0.263-0.68-0.336-1.026-0.23c-0.16,0.041-0.313,0.12-0.446,0.24l-3.101,2.795v-1.914
			c0-0.396-0.313-0.72-0.696-0.72h-1.18c-0.382,0-0.696,0.324-0.696,0.72v4.232l-3.418,3.082c-0.45,0.407-0.499,1.121-0.106,1.589
			l0.06,0.071c0.359,0.427,0.967,0.503,1.413,0.202l1.288-1.146l7.178-6.205l7.098,6.176l1.207,1.093L40,23.83L30.932,15.61z
			 M23.027,25.195V32h5.042v-4.53c0-0.494,0.39-0.899,0.867-0.899h2.537c0.477,0,0.868,0.404,0.868,0.899V32h4.962v-6.81
			l-7.098-6.131L23.027,25.195z"/>
	</g>
</g>
</svg>
